<svg width="20" height="20" viewBox="0 0 20 20" fill="none" xmlns="http://www.w3.org/2000/svg">
<mask id="path-1-inside-1_165_356" fill="white">
<path fill-rule="evenodd" clip-rule="evenodd" d="M19.9992 9.73768C19.9997 9.69599 20 9.65424 20 9.61243C20 4.30363 15.5228 0 10 0C4.47715 0 0 4.30363 0 9.61243C0 14.9212 4.47715 19.2249 10 19.2249C11.0788 19.2249 12.1178 19.0606 13.0912 18.7568C14.3038 19.1572 17.4951 20.1754 17.9995 19.9739C18.6245 19.7242 19.9995 14.1066 19.9995 9.73726L19.9992 9.73768Z"/>
</mask>
<path fill-rule="evenodd" clip-rule="evenodd" d="M19.9992 9.73768C19.9997 9.69599 20 9.65424 20 9.61243C20 4.30363 15.5228 0 10 0C4.47715 0 0 4.30363 0 9.61243C0 14.9212 4.47715 19.2249 10 19.2249C11.0788 19.2249 12.1178 19.0606 13.0912 18.7568C14.3038 19.1572 17.4951 20.1754 17.9995 19.9739C18.6245 19.7242 19.9995 14.1066 19.9995 9.73726L19.9992 9.73768Z" fill="#7350B0"/>
<path d="M19.9992 9.73768L18.9993 9.72441L18.9618 12.5445L20.7674 10.3779L19.9992 9.73768ZM13.0912 18.7568L13.4047 17.8072L13.0998 17.7065L12.7933 17.8022L13.0912 18.7568ZM17.9995 19.9739L17.6285 19.0452V19.0452L17.9995 19.9739ZM19.9995 9.73726H20.9995V6.97521L19.2313 9.09708L19.9995 9.73726ZM19 9.61243C19 9.6498 18.9998 9.68713 18.9993 9.72441L20.9991 9.75094C20.9997 9.70485 21 9.65868 21 9.61243H19ZM10 1C15.0082 1 19 4.8928 19 9.61243H21C21 3.71446 16.0375 -1 10 -1V1ZM1 9.61243C1 4.8928 4.99181 1 10 1V-1C3.96249 -1 -1 3.71446 -1 9.61243H1ZM10 18.2249C4.99181 18.2249 1 14.3321 1 9.61243H-1C-1 15.5104 3.96249 20.2249 10 20.2249V18.2249ZM12.7933 17.8022C11.9154 18.0762 10.9769 18.2249 10 18.2249V20.2249C11.1807 20.2249 12.3201 20.0451 13.3892 19.7114L12.7933 17.8022ZM17.6285 19.0452C17.7946 18.9789 17.8925 19.007 17.7611 18.9981C17.6791 18.9926 17.5517 18.9756 17.3756 18.9424C17.0268 18.8766 16.5735 18.7641 16.077 18.6271C15.0887 18.3544 14.0064 18.0059 13.4047 17.8072L12.7777 19.7064C13.3886 19.9081 14.5083 20.2689 15.5449 20.555C16.0608 20.6974 16.5757 20.8267 17.005 20.9077C17.218 20.9479 17.4321 20.9804 17.626 20.9936C17.7704 21.0034 18.0783 21.0192 18.3705 20.9025L17.6285 19.0452ZM18.9995 9.73726C18.9995 11.8325 18.6678 14.2568 18.2558 16.1922C18.05 17.159 17.8294 17.979 17.6301 18.5581C17.5293 18.8512 17.4432 19.0551 17.379 19.1777C17.3463 19.24 17.3327 19.2554 17.3418 19.244C17.3472 19.2372 17.3682 19.2113 17.4065 19.1783C17.443 19.1467 17.5167 19.0899 17.6285 19.0452L18.3705 20.9025C18.6516 20.7902 18.8262 20.5908 18.9081 20.4876C19.006 20.3643 19.086 20.2291 19.1508 20.1054C19.2815 19.8559 19.4053 19.5459 19.5213 19.2089C19.7556 18.5279 19.9959 17.6237 20.212 16.6086C20.6437 14.5805 20.9995 12.0113 20.9995 9.73726H18.9995ZM20.7674 10.3779L20.7677 10.3774L19.2313 9.09708L19.2309 9.09749L20.7674 10.3779Z" fill="#7350B0" mask="url(#path-1-inside-1_165_356)"/>
</svg>
