<svg width="17" height="20" viewBox="0 0 17 20" fill="none" xmlns="http://www.w3.org/2000/svg">
<path d="M16.0261 9.71396L8.69621 17.6724C8.41181 17.9843 8.07249 18.2322 7.6981 18.4013C7.32372 18.5706 6.92176 18.6577 6.51573 18.6577C6.10969 18.6577 5.70774 18.5706 5.33335 18.4013C4.95896 18.2322 4.61964 17.9843 4.33526 17.6724L2.14245 15.2715C1.56841 14.6438 1.24667 13.7982 1.24667 12.9172C1.24667 12.0363 1.56841 11.1906 2.14245 10.5629L9.95276 2.12698C10.1818 1.87833 10.4543 1.68098 10.7545 1.5463C11.0548 1.41162 11.3768 1.34229 11.7021 1.34229C12.0273 1.34229 12.3494 1.41162 12.6496 1.5463C12.9498 1.68098 13.2223 1.87833 13.4513 2.12698L14.326 3.06872C14.557 3.31533 14.7403 3.60874 14.8653 3.932C14.9905 4.25526 15.0548 4.602 15.0548 4.9522C15.0548 5.3024 14.9905 5.64914 14.8653 5.9724C14.7403 6.29568 14.557 6.58907 14.326 6.83568L7.40271 14.3165C7.28818 14.4409 7.15193 14.5396 7.00181 14.6068C6.8517 14.6742 6.69068 14.7089 6.52805 14.7089C6.36542 14.7089 6.2044 14.6742 6.05428 14.6068C5.90417 14.5396 5.76791 14.4409 5.65339 14.3165L5.22222 13.8391C5.10675 13.7157 5.01511 13.569 4.95257 13.4074C4.89003 13.2458 4.85783 13.0724 4.85783 12.8973C4.85783 12.7222 4.89003 12.5488 4.95257 12.3872C5.01511 12.2256 5.10675 12.0789 5.22222 11.9556L9.86653 6.99484" stroke="#5D5E65" stroke-linecap="round" stroke-linejoin="round"/>
</svg>
