<svg width="20" height="20" viewBox="0 0 20 20" fill="none" xmlns="http://www.w3.org/2000/svg">
<mask id="path-1-inside-1_283_1388" fill="white">
<path fill-rule="evenodd" clip-rule="evenodd" d="M11.9838 0.541611C12.0711 0.710929 12.0928 0.927766 12.1361 1.36144C12.2182 2.1823 12.2593 2.59274 12.4311 2.81793C12.649 3.10358 13.0034 3.25038 13.3595 3.20248C13.6402 3.16472 13.9594 2.90352 14.5979 2.38113C14.9352 2.10515 15.1038 1.96716 15.2853 1.90918C15.5158 1.83555 15.7652 1.84798 15.9872 1.94419C16.162 2.01994 16.3161 2.17402 16.6243 2.4822L17.5178 3.37567C17.8259 3.68385 17.98 3.83794 18.0558 4.01275C18.152 4.23478 18.1644 4.48415 18.0908 4.71464C18.0328 4.89612 17.8948 5.06478 17.6188 5.4021C17.0964 6.0406 16.8352 6.35984 16.7975 6.64056C16.7496 6.99662 16.8964 7.35102 17.182 7.56893C17.4072 7.74072 17.8176 7.78176 18.6385 7.86385C19.0722 7.90722 19.2891 7.92891 19.4584 8.01624C19.6734 8.12716 19.841 8.31228 19.9299 8.53729C20 8.71447 20 8.93239 20 9.36824V10.6319C20 11.0676 20 11.2855 19.93 11.4626C19.841 11.6877 19.6734 11.8729 19.4583 11.9838C19.289 12.0711 19.0722 12.0928 18.6386 12.1361L18.6386 12.1361C17.818 12.2182 17.4077 12.2592 17.1825 12.4309C16.8967 12.6489 16.7499 13.0034 16.7979 13.3596C16.8357 13.6402 17.0968 13.9593 17.619 14.5976C17.8949 14.9348 18.0328 15.1034 18.0908 15.2848C18.1645 15.5154 18.152 15.7648 18.0558 15.9869C17.98 16.1617 17.826 16.3157 17.5179 16.6238L16.6243 17.5174C16.3162 17.8255 16.1621 17.9796 15.9873 18.0554C15.7652 18.1516 15.5159 18.164 15.2854 18.0904C15.1039 18.0324 14.9352 17.8944 14.5979 17.6184L14.5979 17.6184C13.9594 17.096 13.6402 16.8348 13.3595 16.7971C13.0034 16.7492 12.649 16.896 12.4311 17.1816C12.2593 17.4068 12.2183 17.8173 12.1362 18.6383C12.0928 19.0722 12.0711 19.2891 11.9837 19.4585C11.8728 19.6735 11.6877 19.8409 11.4628 19.9299C11.2856 20 11.0676 20 10.6316 20H9.36824C8.93239 20 8.71447 20 8.53729 19.9299C8.31228 19.841 8.12716 19.6734 8.01624 19.4584C7.92891 19.2891 7.90722 19.0722 7.86385 18.6385C7.78176 17.8176 7.74072 17.4072 7.56892 17.182C7.35101 16.8964 6.99663 16.7496 6.64057 16.7975C6.35985 16.8352 6.04059 17.0964 5.40208 17.6189L5.40206 17.6189C5.06473 17.8949 4.89607 18.0329 4.71458 18.0908C4.4841 18.1645 4.23474 18.152 4.01272 18.0558C3.8379 17.9801 3.6838 17.826 3.37561 17.5178L2.48217 16.6243C2.17398 16.3162 2.01988 16.1621 1.94414 15.9873C1.84794 15.7652 1.8355 15.5159 1.90913 15.2854C1.96711 15.1039 2.10511 14.9352 2.3811 14.5979C2.90351 13.9594 3.16471 13.6402 3.20247 13.3594C3.25037 13.0034 3.10357 12.649 2.81792 12.4311C2.59273 12.2593 2.1823 12.2182 1.36143 12.1361C0.927764 12.0928 0.71093 12.0711 0.541612 11.9838C0.326558 11.8728 0.159016 11.6877 0.0700471 11.4627C0 11.2855 0 11.0676 0 10.6318V9.36835C0 8.9324 0 8.71442 0.0700841 8.53721C0.15905 8.31226 0.326541 8.12719 0.541523 8.01628C0.710878 7.92891 0.927769 7.90722 1.36155 7.86384H1.36155H1.36156C2.18264 7.78173 2.59319 7.74068 2.81842 7.56881C3.10395 7.35092 3.2507 6.99664 3.20287 6.64066C3.16514 6.35987 2.90385 6.04052 2.38128 5.40182C2.10516 5.06435 1.96711 4.89561 1.90914 4.71405C1.83557 4.48364 1.848 4.23438 1.94413 4.01243C2.01988 3.83754 2.17403 3.68339 2.48233 3.37509L3.37565 2.48177C3.68385 2.17357 3.83795 2.01947 4.01277 1.94373C4.23478 1.84753 4.48414 1.8351 4.71463 1.90872C4.89612 1.9667 5.06481 2.10472 5.4022 2.38076C6.04061 2.9031 6.35982 3.16427 6.64044 3.20207C6.99661 3.25003 7.35113 3.10319 7.56907 2.81742C7.74077 2.59227 7.78181 2.18195 7.86387 1.36131C7.90722 0.927757 7.9289 0.710983 8.01619 0.541704C8.12712 0.326575 8.31231 0.158981 8.53741 0.0700092C8.71453 0 8.93238 0 9.3681 0H10.6318C11.0676 0 11.2855 0 11.4627 0.0700478C11.6877 0.159016 11.8728 0.326558 11.9838 0.541611ZM10 14C12.2091 14 14 12.2091 14 10C14 7.79086 12.2091 6 10 6C7.79086 6 6 7.79086 6 10C6 12.2091 7.79086 14 10 14Z"/>
</mask>
<path d="M12.1361 1.36144L13.1312 1.26194L12.1361 1.36144ZM11.9838 0.541611L11.095 0.999999V1L11.9838 0.541611ZM12.4311 2.81793L13.2261 2.21141L13.2261 2.21141L12.4311 2.81793ZM13.3595 3.20248L13.2261 2.21141L13.3595 3.20248ZM14.5979 2.38113L15.2311 3.15509L15.2311 3.15509L14.5979 2.38113ZM15.2853 1.90918L15.5896 2.86175L15.2853 1.90918ZM15.9872 1.94419L16.3848 1.02663L16.3848 1.02663L15.9872 1.94419ZM16.6243 2.4822L15.9172 3.1893L15.9172 3.18931L16.6243 2.4822ZM17.5178 3.37567L18.2249 2.66856L18.2249 2.66856L17.5178 3.37567ZM18.0558 4.01275L18.9733 3.61517L18.9733 3.61516L18.0558 4.01275ZM18.0908 4.71464L19.0434 5.01895L19.0434 5.01894L18.0908 4.71464ZM17.6188 5.4021L16.8449 4.76886L16.8449 4.76886L17.6188 5.4021ZM16.7975 6.64056L15.8064 6.50724L15.8064 6.50725L16.7975 6.64056ZM17.182 7.56893L16.5755 8.36398L16.5755 8.36399L17.182 7.56893ZM18.6385 7.86385L18.738 6.86882L18.6385 7.86385ZM19.4584 8.01624L19.9168 7.1275L19.9168 7.1275L19.4584 8.01624ZM19.9299 8.53729L20.8599 8.1696L20.8599 8.1696L19.9299 8.53729ZM19.93 11.4626L19 11.095L19 11.095L19.93 11.4626ZM19.4583 11.9838L19.9166 12.8726L19.9166 12.8726L19.4583 11.9838ZM18.6386 12.1361L18.5391 11.1411L18.5065 11.1444L18.4742 11.1497L18.6386 12.1361ZM18.6386 12.1361L18.7381 13.1312L18.7707 13.1279L18.803 13.1225L18.6386 12.1361ZM17.1825 12.4309L16.5762 11.6357L16.5762 11.6357L17.1825 12.4309ZM16.7979 13.3596L15.8068 13.4931V13.4931L16.7979 13.3596ZM17.619 14.5976L16.845 15.2308H16.845L17.619 14.5976ZM18.0908 15.2848L17.1383 15.5892V15.5892L18.0908 15.2848ZM18.0558 15.9869L17.1383 15.5892L17.1383 15.5892L18.0558 15.9869ZM17.5179 16.6238L18.225 17.3309H18.225L17.5179 16.6238ZM16.6243 17.5174L15.9172 16.8102L15.9172 16.8103L16.6243 17.5174ZM15.9873 18.0554L16.3849 18.9729L16.3849 18.9729L15.9873 18.0554ZM15.2854 18.0904L14.981 19.0429L14.981 19.0429L15.2854 18.0904ZM14.5979 17.6184L15.2312 16.8444L15.2226 16.8376L14.5979 17.6184ZM14.5979 17.6184L13.9646 18.3924L13.9732 18.3993L14.5979 17.6184ZM13.3595 16.7971L13.4928 15.806H13.4928L13.3595 16.7971ZM12.4311 17.1816L13.2262 17.7882L13.2262 17.7881L12.4311 17.1816ZM12.1362 18.6383L11.1411 18.5388V18.5388L12.1362 18.6383ZM11.9837 19.4585L11.095 19L11.095 19L11.9837 19.4585ZM11.4628 19.9299L11.095 19L11.095 19L11.4628 19.9299ZM8.53729 19.9299L8.90499 19L8.53729 19.9299ZM8.01624 19.4584L8.90499 19H8.90499L8.01624 19.4584ZM7.86385 18.6385L6.86882 18.7381V18.7381L7.86385 18.6385ZM7.56892 17.182L6.77387 17.7885L6.77387 17.7885L7.56892 17.182ZM6.64057 16.7975L6.50728 15.8064H6.50727L6.64057 16.7975ZM5.40208 17.6189L4.76884 16.8449L4.753 16.8579L4.73771 16.8714L5.40208 17.6189ZM5.40206 17.6189L6.0353 18.3928L6.05113 18.3799L6.06643 18.3663L5.40206 17.6189ZM4.71458 18.0908L5.01887 19.0434H5.01887L4.71458 18.0908ZM4.01272 18.0558L3.61515 18.9734H3.61515L4.01272 18.0558ZM3.37561 17.5178L4.08271 16.8107H4.08271L3.37561 17.5178ZM2.48217 16.6243L1.77506 17.3315L1.77506 17.3315L2.48217 16.6243ZM1.94414 15.9873L2.86171 15.5897L2.86171 15.5897L1.94414 15.9873ZM1.90913 15.2854L2.86171 15.5897L2.86171 15.5897L1.90913 15.2854ZM2.3811 14.5979L3.15506 15.2311H3.15506L2.3811 14.5979ZM3.20247 13.3594L4.19355 13.4928L3.20247 13.3594ZM2.81792 12.4311L3.42445 11.636L3.42445 11.636L2.81792 12.4311ZM1.36143 12.1361L1.26193 13.1312H1.26193L1.36143 12.1361ZM0.541612 11.9838L0.999999 11.095H0.999998L0.541612 11.9838ZM0.0700471 11.4627L-0.859906 11.8304L-0.859905 11.8304L0.0700471 11.4627ZM0.0700841 8.53721L-0.859831 8.16944L-0.859832 8.16944L0.0700841 8.53721ZM0.541523 8.01628L0.0830474 7.12757L0.0830454 7.12757L0.541523 8.01628ZM1.36155 7.86384V6.86384H1.31167L1.26205 6.86881L1.36155 7.86384ZM1.36156 7.86384V8.86384H1.41143L1.46106 8.85888L1.36156 7.86384ZM2.81842 7.56881L2.21177 6.77383L2.21177 6.77383L2.81842 7.56881ZM3.20287 6.64066L2.21177 6.77383L3.20287 6.64066ZM2.38128 5.40182L3.15523 4.76858L3.15523 4.76858L2.38128 5.40182ZM1.90914 4.71405L0.956518 5.01822L0.956518 5.01822L1.90914 4.71405ZM1.94413 4.01243L1.02651 3.61498V3.61498L1.94413 4.01243ZM2.48233 3.37509L3.18944 4.0822L2.48233 3.37509ZM3.37565 2.48177L2.66855 1.77466V1.77466L3.37565 2.48177ZM4.01277 1.94373L3.6152 1.02616L4.01277 1.94373ZM4.71463 1.90872L5.01892 0.956143V0.956143L4.71463 1.90872ZM5.4022 2.38076L4.76896 3.15472L4.76896 3.15472L5.4022 2.38076ZM6.64044 3.20207L6.77391 2.21101L6.64044 3.20207ZM7.56907 2.81742L6.77391 2.21101L6.77391 2.21101L7.56907 2.81742ZM7.86387 1.36131L8.85891 1.46081V1.46081L7.86387 1.36131ZM8.01619 0.541704L7.12739 0.0834061L7.12739 0.0834091L8.01619 0.541704ZM8.53741 0.0700092L8.90499 1L8.90499 1L8.53741 0.0700092ZM11.4627 0.0700478L11.8304 -0.859904V-0.859904L11.4627 0.0700478ZM13.1312 1.26194C13.1108 1.05831 13.0912 0.856935 13.0626 0.686802C13.0324 0.506836 12.9828 0.297048 12.8725 0.0832216L11.095 1C11.0721 0.955492 11.0769 0.938782 11.0902 1.01798C11.1052 1.10701 11.1181 1.23089 11.1411 1.46094L13.1312 1.26194ZM13.2261 2.21141C13.2894 2.29433 13.2693 2.33101 13.2342 2.13595C13.2008 1.95045 13.1739 1.68915 13.1312 1.26194L11.1411 1.46094C11.1805 1.85459 11.2152 2.20895 11.2658 2.49017C11.3147 2.76184 11.4009 3.11633 11.636 3.42445L13.2261 2.21141ZM13.2261 2.21141L13.2261 2.21141L11.636 3.42444C12.0718 3.99575 12.7806 4.28935 13.4928 4.19355L13.2261 2.21141ZM13.9646 1.60717C13.6323 1.87905 13.4286 2.04481 13.2738 2.15238C13.1111 2.26548 13.1228 2.22531 13.2261 2.21141L13.4928 4.19355C13.8768 4.14188 14.1885 3.95223 14.4152 3.7947C14.6498 3.63163 14.9249 3.4056 15.2311 3.15509L13.9646 1.60717ZM14.981 0.956612C14.7518 1.02983 14.5684 1.14308 14.4198 1.24897C14.2793 1.34907 14.123 1.47759 13.9646 1.60717L15.2311 3.15509C15.41 3.00869 15.5068 2.93022 15.5803 2.87784C15.6457 2.83124 15.6373 2.84651 15.5896 2.86175L14.981 0.956612ZM16.3848 1.02663C15.9408 0.834213 15.442 0.809337 14.981 0.956612L15.5896 2.86175L15.5896 2.86175L16.3848 1.02663ZM17.3314 1.77509C17.1867 1.6304 17.044 1.48696 16.9142 1.37338C16.7768 1.25323 16.6056 1.12228 16.3848 1.02663L15.5896 2.86175C15.5437 2.84184 15.5369 2.82581 15.5973 2.87869C15.6653 2.93813 15.7537 3.02583 15.9172 3.1893L17.3314 1.77509ZM18.2249 2.66856L17.3314 1.77509L15.9172 3.18931L16.8107 4.08277L18.2249 2.66856ZM18.9733 3.61516C18.8777 3.39441 18.7467 3.22316 18.6266 3.08581C18.513 2.95597 18.3696 2.81326 18.2249 2.66856L16.8106 4.08277C16.9741 4.24626 17.0618 4.33469 17.1213 4.40264C17.1742 4.46308 17.1581 4.45629 17.1382 4.41034L18.9733 3.61516ZM19.0434 5.01894C19.1906 4.55797 19.1658 4.05922 18.9733 3.61517L17.1382 4.41034L17.1382 4.41034L19.0434 5.01894ZM18.3928 6.03534C18.5224 5.87696 18.6509 5.72069 18.751 5.58019C18.8569 5.43156 18.9701 5.24814 19.0434 5.01895L17.1382 4.41033C17.1535 4.36263 17.1687 4.35427 17.1221 4.41968C17.0697 4.4932 16.9913 4.58992 16.8449 4.76886L18.3928 6.03534ZM17.7885 6.77387C17.7746 6.87723 17.7345 6.88894 17.8476 6.72619C17.9551 6.57141 18.1209 6.36764 18.3928 6.03534L16.8449 4.76886C16.5943 5.07506 16.3683 5.35016 16.2052 5.58481C16.0477 5.81148 15.8581 6.12317 15.8064 6.50724L17.7885 6.77387ZM17.7885 6.77387V6.77386L15.8064 6.50725C15.7106 7.21938 16.0042 7.92816 16.5755 8.36398L17.7885 6.77387ZM18.738 6.86882C18.3108 6.82609 18.0495 6.79922 17.864 6.76584C17.6689 6.73073 17.7056 6.7106 17.7885 6.77387L16.5755 8.36399C16.8836 8.59904 17.2381 8.68533 17.5098 8.73422C17.791 8.78483 18.1454 8.81952 18.539 8.85889L18.738 6.86882ZM19.9168 7.1275C19.703 7.01721 19.4932 6.96759 19.3132 6.93737C19.1431 6.9088 18.9417 6.88918 18.738 6.86882L18.539 8.85889C18.7691 8.8819 18.893 8.8948 18.982 8.90976C19.0612 8.92305 19.0445 8.92795 19 8.90499L19.9168 7.1275ZM20.8599 8.1696C20.682 7.71957 20.3469 7.34933 19.9168 7.1275L19 8.90499L19 8.90499L20.8599 8.1696ZM21 9.36824C21 9.1636 21.0005 8.96126 20.989 8.78912C20.9769 8.60704 20.9484 8.39334 20.8599 8.1696L19 8.90499C18.9816 8.85841 18.9881 8.84227 18.9935 8.9224C18.9995 9.01249 19 9.13704 19 9.36824H21ZM21 10.6319V9.36824H19V10.6319H21ZM20.86 11.8302C20.9484 11.6065 20.9769 11.3929 20.989 11.2108C21.0005 11.0388 21 10.8365 21 10.6319H19C19 10.863 18.9995 10.9875 18.9935 11.0776C18.9881 11.1577 18.9816 11.1416 19 11.095L20.86 11.8302ZM19.9166 12.8726C20.3469 12.6507 20.682 12.2804 20.86 11.8302L19 11.095V11.095L19.9166 12.8726ZM18.7381 13.1312C18.9417 13.1108 19.1431 13.0912 19.3132 13.0626C19.4931 13.0324 19.7028 12.9828 19.9166 12.8726L19 11.095C19.0445 11.0721 19.0612 11.077 18.982 11.0902C18.893 11.1052 18.7691 11.1181 18.5391 11.1411L18.7381 13.1312ZM18.803 13.1225L18.803 13.1225L18.4742 11.1497L18.4742 11.1497L18.803 13.1225ZM17.7889 13.2261C17.706 13.2893 17.6693 13.2692 17.8644 13.2341C18.0498 13.2007 18.311 13.1739 18.7381 13.1312L18.5391 11.1411C18.1456 11.1805 17.7913 11.2151 17.5102 11.2657C17.2386 11.3146 16.8842 11.4008 16.5762 11.6357L17.7889 13.2261ZM17.7889 13.2261L17.7889 13.2261L16.5762 11.6357C16.0046 12.0716 15.7108 12.7807 15.8068 13.4931L17.7889 13.2261ZM18.3929 13.9643C18.1212 13.6322 17.9555 13.4285 17.8479 13.2738C17.7348 13.1111 17.775 13.1228 17.7889 13.2261L15.8068 13.4931C15.8585 13.877 16.0481 14.1886 16.2056 14.4152C16.3686 14.6497 16.5946 14.9247 16.845 15.2308L18.3929 13.9643ZM19.0433 14.9803C18.9701 14.7513 18.8569 14.5679 18.751 14.4193C18.651 14.2789 18.5225 14.1227 18.3929 13.9643L16.845 15.2308C16.9914 15.4097 17.0698 15.5064 17.1222 15.5799C17.1688 15.6453 17.1535 15.6369 17.1383 15.5892L19.0433 14.9803ZM18.9733 16.3846C19.1658 15.9404 19.1907 15.4415 19.0433 14.9803L17.1383 15.5892L17.1383 15.5892L18.9733 16.3846ZM18.225 17.3309C18.3697 17.1862 18.5131 17.0436 18.6266 16.9138C18.7467 16.7765 18.8776 16.6053 18.9733 16.3846L17.1383 15.5892C17.1582 15.5433 17.1742 15.5365 17.1213 15.5969C17.0619 15.6648 16.9742 15.7532 16.8108 15.9167L18.225 17.3309ZM17.3314 18.2245L18.225 17.3309L16.8108 15.9167L15.9172 16.8102L17.3314 18.2245ZM16.3849 18.9729C16.6056 18.8773 16.7769 18.7463 16.9142 18.6262C17.044 18.5126 17.1867 18.3692 17.3314 18.2245L15.9172 16.8103C15.7537 16.9737 15.6653 17.0614 15.5974 17.1209C15.5369 17.1737 15.5437 17.1577 15.5897 17.1378L16.3849 18.9729ZM14.981 19.0429C15.442 19.1902 15.9408 19.1653 16.3849 18.9729L15.5897 17.1378H15.5897L14.981 19.0429ZM13.9647 18.3924C14.1231 18.522 14.2793 18.6505 14.4198 18.7506C14.5684 18.8565 14.7519 18.9697 14.981 19.0429L15.5897 17.1378C15.6374 17.153 15.6457 17.1683 15.5803 17.1217C15.5068 17.0693 15.4101 16.9909 15.2312 16.8445L13.9647 18.3924ZM13.9732 18.3993L13.9732 18.3993L15.2226 16.8376L15.2226 16.8375L13.9732 18.3993ZM13.2262 17.7881C13.1228 17.7742 13.1111 17.7341 13.2738 17.8472C13.4286 17.9547 13.6324 18.1205 13.9647 18.3924L15.2311 16.8445C14.925 16.5939 14.6499 16.3679 14.4152 16.2048C14.1886 16.0473 13.8769 15.8577 13.4928 15.806L13.2262 17.7881ZM13.2262 17.7881H13.2262L13.4928 15.806C12.7807 15.7102 12.0719 16.0038 11.636 16.5751L13.2262 17.7881ZM13.1312 18.7378C13.1739 18.3105 13.2008 18.0492 13.2342 17.8636C13.2693 17.6685 13.2894 17.7052 13.2262 17.7882L11.636 16.5751C11.401 16.8832 11.3147 17.2378 11.2658 17.5094C11.2152 17.7907 11.1805 18.1451 11.1411 18.5388L13.1312 18.7378ZM12.8724 19.917C12.9828 19.7031 13.0324 19.4932 13.0626 19.3132C13.0912 19.143 13.1108 18.9415 13.1312 18.7378L11.1411 18.5388C11.1181 18.769 11.1052 18.8929 11.0902 18.982C11.0769 19.0612 11.072 19.0445 11.095 19L12.8724 19.917ZM11.8306 20.8598C12.2805 20.6819 12.6506 20.3469 12.8724 19.917L11.095 19L11.095 19L11.8306 20.8598ZM10.6316 21C10.8363 21 11.0387 21.0005 11.2109 20.989C11.393 20.9768 11.6068 20.9483 11.8306 20.8598L11.095 19C11.1416 18.9816 11.1577 18.9881 11.0776 18.9935C10.9875 18.9995 10.8629 19 10.6316 19V21ZM9.36824 21H10.6316V19H9.36824V21ZM8.1696 20.8599C8.39335 20.9484 8.60704 20.9769 8.78912 20.989C8.96126 21.0005 9.1636 21 9.36824 21V19C9.13703 19 9.01249 18.9995 8.92241 18.9935C8.84227 18.9881 8.85842 18.9816 8.90499 19L8.1696 20.8599ZM7.1275 19.9168C7.34933 20.3469 7.71958 20.682 8.1696 20.8599L8.90499 19L7.1275 19.9168ZM6.86882 18.7381C6.88918 18.9417 6.9088 19.1431 6.93737 19.3132C6.96759 19.4932 7.01721 19.703 7.1275 19.9168L8.90499 19C8.92794 19.0445 8.92305 19.0612 8.90976 18.982C8.89481 18.893 8.8819 18.7691 8.85889 18.539L6.86882 18.7381ZM6.77387 17.7885C6.7106 17.7056 6.73073 17.6689 6.76584 17.864C6.79922 18.0495 6.82609 18.3108 6.86882 18.7381L8.85889 18.539C8.81953 18.1454 8.78483 17.791 8.73422 17.5098C8.68533 17.2381 8.59903 16.8836 8.36397 16.5755L6.77387 17.7885ZM6.77387 17.7885L8.36397 16.5755C7.92815 16.0042 7.21939 15.7106 6.50728 15.8064L6.77387 17.7885ZM6.03531 18.3928C6.36763 18.1209 6.5714 17.9551 6.72619 17.8476C6.88895 17.7345 6.87724 17.7746 6.77387 17.7885L6.50727 15.8064C6.12318 15.858 5.81149 16.0477 5.58481 16.2052C5.35015 16.3683 5.07504 16.5944 4.76884 16.8449L6.03531 18.3928ZM6.06643 18.3663L6.06644 18.3663L4.73771 16.8714L4.7377 16.8715L6.06643 18.3663ZM5.01887 19.0434C5.24807 18.9702 5.4315 18.8569 5.58013 18.751C5.72064 18.6509 5.87691 18.5224 6.0353 18.3928L4.76883 16.8449C4.58988 16.9913 4.49316 17.0698 4.41963 17.1222C4.35422 17.1688 4.36258 17.1535 4.41029 17.1383L5.01887 19.0434ZM3.61515 18.9734C4.05919 19.1658 4.55791 19.1907 5.01887 19.0434L4.41029 17.1383L4.41029 17.1383L3.61515 18.9734ZM2.6685 18.2249C2.81321 18.3696 2.95592 18.513 3.08577 18.6266C3.22313 18.7468 3.39438 18.8777 3.61515 18.9734L4.41029 17.1383C4.45624 17.1582 4.46304 17.1742 4.40259 17.1213C4.33464 17.0619 4.2462 16.9742 4.08271 16.8107L2.6685 18.2249ZM1.77506 17.3315L2.6685 18.2249L4.08271 16.8107L3.18927 15.9172L1.77506 17.3315ZM1.02657 16.3848C1.12223 16.6056 1.25318 16.7768 1.37333 16.9142C1.48692 17.044 1.63036 17.1868 1.77506 17.3315L3.18928 15.9172C3.02579 15.7538 2.93809 15.6653 2.87864 15.5974C2.82577 15.5369 2.8418 15.5437 2.86171 15.5897L1.02657 16.3848ZM0.956557 14.9811C0.809296 15.4421 0.834171 15.9408 1.02657 16.3848L2.86171 15.5897V15.5897L0.956557 14.9811ZM1.60715 13.9647C1.47756 14.123 1.34903 14.2793 1.24892 14.4198C1.14303 14.5684 1.02977 14.7519 0.956557 14.9811L2.86171 15.5897C2.84647 15.6374 2.83119 15.6457 2.87779 15.5803C2.93018 15.5068 3.00865 15.4101 3.15506 15.2311L1.60715 13.9647ZM2.2114 13.2261C2.2253 13.1228 2.26548 13.1111 2.15237 13.2738C2.0448 13.4286 1.87903 13.6324 1.60715 13.9647L3.15506 15.2311C3.40558 14.9249 3.63162 14.6498 3.79469 14.4152C3.95222 14.1885 4.14188 13.8768 4.19355 13.4928L2.2114 13.2261ZM2.2114 13.2261L2.2114 13.2261L4.19355 13.4928C4.28934 12.7806 3.99575 12.0718 3.42445 11.636L2.2114 13.2261ZM1.26193 13.1312C1.68915 13.1739 1.95044 13.2008 2.13595 13.2342C2.33101 13.2693 2.29432 13.2894 2.2114 13.2261L3.42445 11.636C3.11633 11.4009 2.76184 11.3147 2.49017 11.2658C2.20894 11.2152 1.85458 11.1805 1.46093 11.1411L1.26193 13.1312ZM0.0832256 12.8725C0.29705 12.9828 0.506835 13.0324 0.6868 13.0626C0.856931 13.0912 1.05831 13.1108 1.26193 13.1312L1.46094 11.1411C1.23089 11.1181 1.10701 11.1052 1.01798 11.0902C0.938783 11.0769 0.955492 11.0721 0.999999 11.095L0.0832256 12.8725ZM-0.859905 11.8304C-0.681969 12.2804 -0.346885 12.6507 0.0832257 12.8725L0.999998 11.095H1L-0.859905 11.8304ZM-1 10.6318C-1 10.8364 -1.00052 11.0387 -0.989021 11.2109C-0.976861 11.393 -0.948366 11.6066 -0.859906 11.8304L1 11.095C1.01841 11.1416 1.01188 11.1577 1.00653 11.0776C1.00052 10.9875 1 10.863 1 10.6318H-1ZM-1 9.36835V10.6318H1V9.36835H-1ZM-0.859832 8.16944C-0.948338 8.39323 -0.976849 8.60697 -0.989016 8.7891C-1.00052 8.96127 -1 9.16366 -1 9.36835H1C1 9.13709 1.00052 9.01251 1.00654 8.92241C1.01189 8.84226 1.01842 8.85841 1 8.90499L-0.859832 8.16944ZM0.0830454 7.12757C-0.346918 7.34939 -0.681901 7.71954 -0.859831 8.16944L1 8.90499L1 8.90499L0.0830454 7.12757ZM1.26205 6.86881C1.05837 6.88917 0.856944 6.9088 0.686769 6.93737C0.506756 6.9676 0.296918 7.01724 0.0830474 7.12757L0.999998 8.90499C0.955483 8.92795 0.938767 8.92306 1.01798 8.90976C1.10704 8.8948 1.23094 8.88189 1.46105 8.85888L1.26205 6.86881ZM1.36155 6.86384H1.36155V8.86384H1.36155V6.86384ZM1.36156 6.86384H1.36155V8.86384H1.36156V6.86384ZM2.21177 6.77383C2.29471 6.71055 2.33141 6.73069 2.1363 6.7658C1.95075 6.7992 1.68939 6.82607 1.26205 6.86881L1.46106 8.85888C1.85482 8.81951 2.20927 8.7848 2.49057 8.73417C2.76231 8.68527 3.1169 8.59894 3.42506 8.36378L2.21177 6.77383ZM2.21177 6.77383L2.21177 6.77383L3.42506 8.36378C3.99613 7.92801 4.28962 7.21944 4.19396 6.50749L2.21177 6.77383ZM1.60732 6.03506C1.87929 6.36746 2.04511 6.5713 2.15272 6.72614C2.26586 6.88895 2.22567 6.87724 2.21177 6.77383L4.19396 6.50749C4.14234 6.1233 3.95263 5.81151 3.79506 5.58478C3.63195 5.35006 3.40584 5.07487 3.15523 4.76858L1.60732 6.03506ZM0.956518 5.01822C1.02973 5.24751 1.14303 5.43102 1.24896 5.57971C1.3491 5.72027 1.47768 5.8766 1.60732 6.03506L3.15523 4.76858C3.00876 4.58956 2.93026 4.49279 2.87785 4.41923C2.83123 4.35379 2.84651 4.36215 2.86175 4.40988L0.956518 5.01822ZM1.02651 3.61498C0.834244 4.05887 0.809379 4.5574 0.956518 5.01822L2.86175 4.40988L2.86175 4.40988L1.02651 3.61498ZM1.77523 2.66798C1.63047 2.81274 1.48698 2.9555 1.37335 3.08539C1.25316 3.2228 1.12217 3.39412 1.02651 3.61498L2.86175 4.40988C2.84184 4.45585 2.8258 4.46265 2.8787 4.40219C2.93816 4.33421 3.02589 4.24574 3.18944 4.0822L1.77523 2.66798ZM2.66855 1.77466L1.77523 2.66798L3.18944 4.0822L4.08276 3.18888L2.66855 1.77466ZM3.6152 1.02616C3.39443 1.12181 3.22317 1.25276 3.08581 1.37292C2.95596 1.48651 2.81325 1.62996 2.66855 1.77466L4.08276 3.18888C4.24625 3.02538 4.33469 2.93768 4.40264 2.87824C4.46309 2.82536 4.45629 2.84139 4.41034 2.8613L3.6152 1.02616ZM5.01892 0.956143C4.55795 0.808891 4.05923 0.833765 3.6152 1.02616L4.41034 2.8613V2.8613L5.01892 0.956143ZM6.03543 1.60681C5.87702 1.47719 5.72073 1.34865 5.58021 1.24853C5.43158 1.14264 5.24813 1.02936 5.01892 0.956143L4.41034 2.8613C4.36262 2.84606 4.35426 2.83078 4.41969 2.8774C4.49324 2.9298 4.58999 3.00829 4.76896 3.15472L6.03543 1.60681ZM6.77391 2.21101C6.87727 2.22493 6.88897 2.26509 6.72621 2.15197C6.57144 2.04441 6.36769 1.87865 6.03543 1.60681L4.76896 3.15472C5.07512 3.40521 5.35018 3.63122 5.58477 3.79427C5.81138 3.95176 6.123 4.14141 6.50697 4.19312L6.77391 2.21101ZM6.77391 2.21101L6.77391 2.21101L6.50697 4.19312C7.21932 4.28905 7.92836 3.99536 8.36422 3.42382L6.77391 2.21101ZM6.86883 1.2618C6.82612 1.6889 6.79926 1.95012 6.76589 2.13558C6.7308 2.33059 6.71068 2.29392 6.77391 2.21101L8.36422 3.42382C8.59916 3.11576 8.68541 2.76136 8.73428 2.48976C8.78487 2.20861 8.81955 1.85435 8.85891 1.46081L6.86883 1.2618ZM7.12739 0.0834091C7.01716 0.297186 6.96756 0.506916 6.93736 0.686833C6.9088 0.856918 6.88919 1.05824 6.86883 1.2618L8.85891 1.46081C8.88191 1.23082 8.89481 1.10698 8.90975 1.01798C8.92305 0.938798 8.92793 0.955501 8.90499 0.999999L7.12739 0.0834091ZM8.16982 -0.859982C7.71962 -0.682039 7.34924 -0.346849 7.12739 0.0834061L8.90499 1L8.90499 1L8.16982 -0.859982ZM9.3681 -1C9.16352 -1 8.96124 -1.00052 8.78916 -0.989027C8.60713 -0.976874 8.39351 -0.948394 8.16982 -0.859981L8.90499 1C8.85843 1.0184 8.84229 1.01188 8.9224 1.00653C9.01245 1.00052 9.13696 1 9.3681 1V-1ZM10.6318 -1H9.3681V1H10.6318V-1ZM11.8304 -0.859904C11.6066 -0.948365 11.393 -0.976861 11.2109 -0.989021C11.0387 -1.00052 10.8364 -1 10.6318 -1V1C10.863 1 10.9875 1.00052 11.0776 1.00653C11.1577 1.01188 11.1416 1.01841 11.095 1L11.8304 -0.859904ZM12.8725 0.0832222C12.6507 -0.346884 12.2804 -0.681967 11.8304 -0.859904L11.095 1L11.095 0.999999L12.8725 0.0832222ZM13 10C13 11.6569 11.6569 13 10 13V15C12.7614 15 15 12.7614 15 10H13ZM10 7C11.6569 7 13 8.34315 13 10H15C15 7.23858 12.7614 5 10 5V7ZM7 10C7 8.34315 8.34315 7 10 7V5C7.23858 5 5 7.23858 5 10H7ZM10 13C8.34315 13 7 11.6569 7 10H5C5 12.7614 7.23858 15 10 15V13Z" fill="#6B6C73" mask="url(#path-1-inside-1_283_1388)"/>
</svg>
