<svg width="21" height="20" viewBox="0 0 21 20" fill="none" xmlns="http://www.w3.org/2000/svg">
<path d="M10.2857 11.4285C12.2581 11.4285 13.8571 9.82952 13.8571 7.85707C13.8571 5.88463 12.2581 4.28564 10.2857 4.28564C8.31322 4.28564 6.71423 5.88463 6.71423 7.85707C6.71423 9.82952 8.31322 11.4285 10.2857 11.4285Z" fill="#060607" stroke="#060607" stroke-linecap="round" stroke-linejoin="round"/>
<path d="M4.5 17C5.12703 16.0839 5.5083 15.3267 6.55907 14.8014C7.60984 14.276 8.79478 14 9.99999 14C11.2052 14 12.3901 14.276 13.4409 14.8014C14.4917 15.3267 15.3729 16.0839 16 17" fill="#060607"/>
<path d="M4.5 17C5.12703 16.0839 5.5083 15.3267 6.55907 14.8014C7.60984 14.276 8.79478 14 9.99999 14C11.2052 14 12.3901 14.276 13.4409 14.8014C14.4917 15.3267 15.3729 16.0839 16 17C16 17 13.4409 19 9.99999 19C6.55907 19 4.5 17 4.5 17Z" fill="#060607"/>
<path d="M4.5 17C5.12703 16.0839 5.5083 15.3267 6.55907 14.8014C7.60984 14.276 8.79478 14 9.99999 14C11.2052 14 12.3901 14.276 13.4409 14.8014C14.4917 15.3267 15.3729 16.0839 16 17C16 17 13.4409 19 9.99999 19C6.55907 19 4.5 17 4.5 17Z" stroke="#060607" stroke-linecap="round" stroke-linejoin="round"/>
<path d="M10.2857 19.2858C15.4141 19.2858 19.5714 15.1285 19.5714 10.0001C19.5714 4.87171 15.4141 0.714355 10.2857 0.714355C5.15736 0.714355 1 4.87171 1 10.0001C1 15.1285 5.15736 19.2858 10.2857 19.2858Z" stroke="#060607" stroke-linecap="round" stroke-linejoin="round"/>
</svg>
