<svg width="20" height="20" viewBox="0 0 20 20" fill="none" xmlns="http://www.w3.org/2000/svg">
<path d="M13.3462 7.69235C13.3462 9.54037 11.8481 11.0385 10 11.0385C8.152 11.0385 6.65387 9.54037 6.65387 7.69235C6.65387 5.84432 8.152 4.34619 10 4.34619C11.8481 4.34619 13.3462 5.84432 13.3462 7.69235Z" stroke="#6B6C73" stroke-linecap="round" stroke-linejoin="round"/>
<mask id="path-2-inside-1_283_1384" fill="white">
<path d="M3.43073 17.5384C4.11725 16.4115 5.08212 15.4801 6.23259 14.8339C7.38305 14.1876 8.6804 13.8481 9.99996 13.8481C11.3195 13.8481 12.6169 14.1876 13.7673 14.8339C14.9178 15.4801 15.8826 16.4115 16.5692 17.5384"/>
</mask>
<path d="M2.57672 17.0181C2.28939 17.4898 2.43881 18.1051 2.91046 18.3924C3.38212 18.6797 3.9974 18.5303 4.28473 18.0587L2.57672 17.0181ZM6.23259 14.8339L6.72228 15.7058L6.72239 15.7058L6.23259 14.8339ZM13.7673 14.8339L13.2775 15.7058L13.2776 15.7058L13.7673 14.8339ZM15.7152 18.0587C16.0026 18.5303 16.6179 18.6797 17.0895 18.3924C17.5612 18.105 17.7106 17.4897 17.4232 17.0181L15.7152 18.0587ZM4.28473 18.0587C4.88201 17.0782 5.72145 16.2679 6.72228 15.7058L5.74289 13.962C4.4428 14.6922 3.35248 15.7447 2.57672 17.0181L4.28473 18.0587ZM6.72239 15.7058C7.72327 15.1435 8.85195 14.8481 9.99996 14.8481V12.8481C8.50886 12.8481 7.04283 13.2317 5.74278 13.9621L6.72239 15.7058ZM9.99996 14.8481C11.148 14.8481 12.2766 15.1435 13.2775 15.7058L14.2571 13.9621C12.9571 13.2317 11.4911 12.8481 9.99996 12.8481V14.8481ZM13.2776 15.7058C14.2785 16.2679 15.1178 17.0782 15.7152 18.0587L17.4232 17.0181C16.6474 15.7447 15.5572 14.6922 14.257 13.962L13.2776 15.7058Z" fill="#6B6C73" mask="url(#path-2-inside-1_283_1384)"/>
<path d="M19.5 10C19.5 15.2468 15.2468 19.5 10 19.5C4.75329 19.5 0.5 15.2468 0.5 10C0.5 4.7533 4.7533 0.5 10 0.5C15.2468 0.5 19.5 4.75329 19.5 10Z" stroke="#6B6C73" stroke-linecap="round" stroke-linejoin="round"/>
</svg>
