<svg width="128" height="128" viewBox="0 0 128 128" fill="none" xmlns="http://www.w3.org/2000/svg">
<g clip-path="url(#clip0_132_84)">
<rect width="128" height="128" fill="#7350B0"/>
<path d="M104 62.5C104 83.763 86.0914 101 64 101C41.9086 101 24 83.763 24 62.5C24 41.237 41.9086 24 64 24C86.0914 24 104 41.237 104 62.5Z" fill="white"/>
<path d="M50.6667 67.871C50.6667 72.7168 47.8951 76.6452 44.4762 76.6452C41.0573 76.6452 38.2857 72.7168 38.2857 67.871C38.2857 63.0251 41.0573 59.0968 44.4762 59.0968C47.8951 59.0968 50.6667 63.0251 50.6667 67.871Z" fill="#7350B0"/>
<path d="M74.4762 67.871C74.4762 72.7168 71.7046 76.6452 68.2857 76.6452C64.8668 76.6452 62.0952 72.7168 62.0952 67.871C62.0952 63.0251 64.8668 59.0968 68.2857 59.0968C71.7046 59.0968 74.4762 63.0251 74.4762 67.871Z" fill="#7350B0"/>
<path d="M96 104C93.5 105 74.5 98.5 74.5 98.5L104 63C104 80.5 98.5 103 96 104Z" fill="white"/>
</g>
<defs>
<clipPath id="clip0_132_84">
<rect width="128" height="128" rx="50" fill="white"/>
</clipPath>
</defs>
</svg>
