<svg width="18" height="20" viewBox="0 0 18 20" fill="none" xmlns="http://www.w3.org/2000/svg">
<path d="M3.12641 5.55585L4.7031 9.20713C4.87185 9.59792 4.95623 9.79331 4.95623 10C4.95623 10.2067 4.87185 10.4021 4.7031 10.7929L3.12641 14.4441C2.1357 16.7384 1.64035 17.8856 2.18042 18.3658C2.7205 18.846 3.80187 18.22 5.96461 16.9679L15.0104 11.7309C16.3396 10.9613 17.0042 10.5766 17.0042 10C17.0042 9.42345 16.3396 9.03868 15.0104 8.26915L5.96461 3.03213C3.80187 1.78002 2.7205 1.15396 2.18042 1.6342C1.64035 2.11443 2.1357 3.26157 3.12641 5.55585Z" stroke="#BEBEBE"/>
</svg>
